<svg aria-hidden="true" style="position: absolute; width: 0; height: 0; overflow: hidden;" version="1.1" xmlns="http://www.w3.org/2000/svg" xmlns:xlink="http://www.w3.org/1999/xlink">
<defs>
<symbol id="icon-1646213" viewBox="0 0 32 32">
<path d="M12.445 5.8c-0.375 0.060-0.675 0.173-1 0.378-0.182 0.115-0.688 0.61-4.168 4.082-2.178 2.175-4.027 4.033-4.112 4.13-0.313 0.363-0.538 0.885-0.593 1.377-0.067 0.603 0.145 1.287 0.555 1.792 0.232 0.288 8.037 8.067 8.223 8.198 0.45 0.313 0.885 0.45 1.438 0.453 1.193 0.003 2.195-0.848 2.397-2.032 0.082-0.49 0.023-0.955-0.188-1.422-0.168-0.372-0.23-0.442-2.195-2.41l-1.89-1.895h8.088c5.455 0 8.157-0.008 8.297-0.025 0.39-0.050 0.83-0.225 1.14-0.455 1.122-0.835 1.328-2.418 0.453-3.508-0.328-0.41-0.775-0.695-1.328-0.845l-0.2-0.055-16.448-0.012 1.887-1.895c1.965-1.967 2.027-2.037 2.195-2.41 0.42-0.938 0.238-1.995-0.473-2.723-0.332-0.34-0.693-0.548-1.15-0.665-0.268-0.067-0.697-0.095-0.93-0.058z"></path>
</symbol>
</defs>
</svg>
